<svg width="59" height="48" viewBox="0 0 59 48" fill="none" xmlns="http://www.w3.org/2000/svg">
<path fill-rule="evenodd" clip-rule="evenodd" d="M58.34 9.54497C57.7735 8.79219 56.8861 8.34957 55.944 8.34997H17.274L14.799 0.964966H3.058C1.40114 0.964966 0.0579987 2.30811 0.0579987 3.96497C0.0579987 5.62182 1.40114 6.96497 3.058 6.96497H10.482L23.982 47.25H49.141C50.7979 47.25 52.141 45.9068 52.141 44.25C52.141 42.5931 50.7979 41.25 49.141 41.25H28.299L26.573 36.101H49.693C51.031 36.1009 52.2074 35.2149 52.577 33.929L58.827 12.179C59.0866 11.2732 58.9063 10.2981 58.34 9.54497ZM50.559 19.226H45.749V14.35H51.96L50.559 19.226ZM32.942 14.35V19.225H39.749V14.35H32.942ZM39.749 25.226V30.101H32.942V25.226H39.749ZM26.942 19.225V14.35H19.285L20.919 19.225H26.942ZM22.929 25.226H26.942V30.101H24.563L22.929 25.226ZM45.749 25.226V30.101H47.434L48.835 25.226H45.749Z" fill="white"/>
</svg>
